# Blender v2.77 (sub 0) OBJ File: ''
# www.blender.org
mtllib White wolfos.mtl
o WWFS
v 0.058105 0.450195 0.448730
v 0.056885 0.500000 0.237061
v 0.073486 0.175049 0.392334
v 0.120361 0.151123 0.282959
v 0.086670 0.000244 0.393066
v 0.086670 0.000244 0.330322
v 0.141357 0.000244 0.393066
v 0.141357 0.000244 0.330322
v 0.198730 0.175049 0.392334
v 0.120361 0.151123 0.282959
v 0.255615 0.450195 0.448730
v 0.224854 0.500000 0.237061
v -0.055908 0.500000 0.237061
v -0.057861 0.450195 0.448730
v -0.120361 0.151123 0.282959
v -0.073486 0.175049 0.392334
v -0.086670 0.000244 0.330322
v -0.086670 0.000244 0.393066
v -0.141357 0.000244 0.330322
v -0.141357 0.000244 0.393066
v -0.120361 0.151123 0.282959
v -0.198730 0.175049 0.392334
v -0.223877 0.500000 0.237061
v -0.254883 0.450195 0.448730
v 0.117676 0.527832 0.770019
v 0.180664 0.604736 0.750244
v 0.054199 0.561716 1.013212
v 0.055664 0.598350 1.031251
v -0.054688 0.561716 1.013212
v -0.055908 0.598350 1.031251
v -0.117676 0.527832 0.770019
v -0.180664 0.604736 0.750244
v 0.228271 0.916504 0.567139
v 0.259522 0.907715 0.347656
v 0.000000 0.992188 0.576660
v 0.000000 1.001465 0.350098
v -0.228271 0.916504 0.567139
v -0.259522 0.907715 0.347656
v -0.055908 0.598350 1.031251
v 0.055664 0.598350 1.031251
v -0.180664 0.604736 0.750244
v 0.180664 0.604736 0.750244
v -0.061035 0.597656 1.058350
v 0.061035 0.597656 1.058350
v 0.086670 0.000244 0.393066
v 0.141357 0.000244 0.393066
v 0.073486 0.175049 0.392334
v 0.198730 0.175049 0.392334
v 0.058105 0.450195 0.448730
v 0.255615 0.450195 0.448730
v -0.141357 0.000244 0.393066
v -0.086670 0.000244 0.393066
v -0.198730 0.175049 0.392334
v -0.073486 0.175049 0.392334
v -0.254883 0.450195 0.448730
v -0.057861 0.450195 0.448730
v -0.180664 0.604736 0.750244
v -0.061035 0.597656 1.058350
v -0.059326 0.721924 1.076172
v 0.000000 0.721924 1.100342
v 0.000000 0.809326 0.827637
v 0.059326 0.721924 1.076172
v 0.074219 0.798096 0.827637
v 0.180664 0.604736 0.750244
v 0.228271 0.916504 0.567139
v 0.282471 0.583984 0.605469
v 0.359863 0.621338 0.374023
v 0.259522 0.354004 0.422119
v 0.209961 0.524658 0.016113
v 0.000000 0.361328 0.016113
v 0.133057 0.744141 0.016113
v 0.000000 0.729736 -0.212402
v -0.133057 0.744141 0.016113
v -0.190674 0.622315 -0.236328
v -0.209961 0.524658 0.016113
v -0.206543 0.423584 -0.279541
v -0.143066 0.342041 -0.265137
v 0.000000 0.600098 -0.350098
v 0.143066 0.342041 -0.265137
v 0.206543 0.423584 -0.279541
v 0.209961 0.524658 0.016113
v 0.190674 0.622315 -0.236328
v 0.133057 0.744141 0.016113
v 0.000000 0.729736 -0.212402
v -0.029053 0.517090 -0.024414
v -0.209961 0.524658 0.016113
v -0.118408 0.246582 -0.212402
v -0.206543 0.423584 -0.279541
v -0.156494 0.275391 -0.322022
v -0.055420 0.275391 -0.322022
v -0.095703 0.000000 -0.264893
v -0.070557 0.000000 -0.202393
v -0.123779 0.000000 -0.202393
v -0.118408 0.246582 -0.212402
v -0.156494 0.275391 -0.322022
v 0.043213 0.423584 -0.183594
v 0.206543 0.423584 -0.279541
v 0.055420 0.275391 -0.322022
v 0.156494 0.275391 -0.322022
v 0.095703 0.000000 -0.264893
v 0.122070 0.000000 -0.202393
v 0.068848 0.000000 -0.202393
v 0.105957 0.246582 -0.212402
v 0.055420 0.275391 -0.322022
v -0.059326 0.721924 1.076172
v -0.074219 0.798096 0.827637
v -0.180664 0.604736 0.750244
v -0.228271 0.916504 0.567139
v -0.282471 0.583984 0.605469
v -0.359863 0.621338 0.374023
v -0.259522 0.354004 0.422119
v -0.209961 0.524658 0.016113
v 0.000000 0.361328 0.016113
v -0.180664 0.604736 0.750244
v -0.282471 0.583984 0.605469
v -0.117676 0.527832 0.770019
v -0.259522 0.354004 0.422119
v 0.000000 0.334961 0.590088
v 0.000000 0.250000 0.398193
v 0.259522 0.354004 0.422119
v 0.000000 0.361328 0.016113
v 0.000000 0.600446 -0.907961
v -0.136230 0.490049 -0.708017
v 0.000000 0.732180 -0.696718
v 0.000000 0.732105 -0.490650
v 0.136230 0.490049 -0.708017
v 0.136963 0.508266 -0.507906
v 0.122070 0.000000 -0.202393
v 0.156494 0.275391 -0.322022
v 0.105957 0.246582 -0.212402
v 0.206543 0.423584 -0.279541
v 0.209961 0.524658 0.016113
v 0.180664 0.604736 0.750244
v 0.059326 0.721924 1.076172
v 0.061035 0.597656 1.058350
v 0.000000 0.721924 1.100342
v -0.061035 0.597656 1.058350
v -0.217529 0.760254 0.636963
v -0.252197 0.818604 0.641357
v -0.119385 0.947754 0.527832
v -0.236816 1.037354 0.707764
v -0.014648 0.825928 0.722168
v -0.136230 0.490049 -0.708017
v -0.136963 0.508266 -0.507906
v 0.000000 0.732105 -0.490650
v 0.000000 0.730469 -0.134766
v 0.136963 0.508266 -0.507906
v -0.059326 0.721924 1.076172
v 0.000000 0.809326 0.827637
v -0.074219 0.798096 0.827637
v 0.000000 0.992188 0.576660
v -0.228271 0.916504 0.567139
v 0.000000 0.729736 -0.212402
v 0.000000 0.600098 -0.350098
v -0.190674 0.622315 -0.236328
v -0.206543 0.423584 -0.279541
v 0.209961 0.524658 0.016113
v 0.000000 0.361328 0.016113
v 0.143066 0.342041 -0.265137
v -0.143066 0.342041 -0.265137
v 0.228271 0.916504 0.567139
v 0.359863 0.621338 0.374023
v 0.259522 0.907715 0.347656
v 0.133057 0.744141 0.016113
v 0.180664 0.604736 0.750244
v 0.117676 0.527832 0.770019
v 0.282471 0.583984 0.605469
v 0.259522 0.354004 0.422119
v 0.228271 0.916504 0.567139
v 0.000000 0.992188 0.576660
v 0.074219 0.798096 0.827637
v 0.000000 0.809326 0.827637
v -0.209961 0.524658 0.016113
v -0.359863 0.621338 0.374023
v -0.133057 0.744141 0.016113
v -0.259522 0.907715 0.347656
v 0.217529 0.760254 0.636963
v 0.119385 0.947754 0.527832
v 0.252197 0.818604 0.641357
v 0.236816 1.037354 0.707764
v -0.259522 0.907715 0.347656
v 0.000000 1.001465 0.350098
v -0.133057 0.744141 0.016113
v 0.133057 0.744141 0.016113
v 0.236816 1.037354 0.707764
v 0.014648 0.825928 0.722168
v 0.252197 0.818604 0.641357
v 0.217529 0.760254 0.636963
v -0.117676 0.527832 0.770019
v 0.000000 0.334961 0.590088
v 0.117676 0.527832 0.770019
v 0.259522 0.354004 0.422119
v -0.236816 1.037354 0.707764
v -0.252197 0.818604 0.641357
v -0.014648 0.825928 0.722168
v -0.217529 0.760254 0.636963
v 0.206543 0.423584 -0.279541
v 0.000000 0.600098 -0.350098
v 0.190674 0.622315 -0.236328
v 0.000000 0.729736 -0.212402
v 0.055420 0.275391 -0.322022
v 0.105957 0.246582 -0.212402
v 0.029053 0.517090 -0.024414
v 0.043213 0.423584 -0.183594
v -0.029053 0.517090 -0.024414
v -0.118408 0.246582 -0.212402
v -0.055420 0.275391 -0.322022
v -0.043213 0.423584 -0.183594
v 0.117676 0.527832 0.770019
v 0.054199 0.561716 1.013212
v -0.054688 0.561716 1.013212
v -0.117676 0.527832 0.770019
v 0.136230 0.490049 -0.708017
v 0.136963 0.508266 -0.507906
v -0.136963 0.508266 -0.507906
v -0.136230 0.490049 -0.708017
v 0.000000 0.600446 -0.907961
v 0.136230 0.490049 -0.708017
v -0.136230 0.490049 -0.708017
v 0.136963 0.508266 -0.507906
v 0.000000 0.730469 -0.134766
v -0.136963 0.508266 -0.507906
v -0.120361 0.151123 0.282959
v -0.086670 0.000244 0.330322
v -0.141357 0.000244 0.330322
v 0.000000 0.732180 -0.696718
v 0.136230 0.490049 -0.708017
v 0.000000 0.600446 -0.907961
v 0.056885 0.500000 0.237061
v 0.224854 0.500000 0.237061
v 0.120361 0.151123 0.282959
v 0.014648 0.825928 0.722168
v 0.236816 1.037354 0.707764
v 0.119385 0.947754 0.527832
v 0.133057 0.744141 0.016113
v 0.000000 1.001465 0.350098
v 0.259522 0.907715 0.347656
v -0.051514 0.671567 0.996774
v -0.041260 0.594922 1.016850
v -0.068359 0.594893 0.977787
v 0.000000 0.361328 0.016113
v -0.209961 0.524658 0.016113
v -0.143066 0.342041 -0.265137
v -0.095703 0.000000 -0.264893
v -0.123779 0.000000 -0.202393
v -0.156494 0.275391 -0.322022
v 0.051025 0.671567 0.996774
v 0.067627 0.594893 0.977543
v 0.040771 0.594922 1.016605
v -0.051514 0.671567 0.996774
v -0.068359 0.594893 0.977787
v -0.041260 0.594922 1.016850
v -0.055420 0.275391 -0.322022
v -0.206543 0.423584 -0.279541
v -0.043213 0.423584 -0.183594
v 0.051025 0.671567 0.996774
v 0.040771 0.594922 1.016605
v 0.067627 0.594893 0.977543
v 0.120361 0.151123 0.282959
v 0.141357 0.000244 0.330322
v 0.086670 0.000244 0.330322
v -0.055420 0.275391 -0.322022
v -0.118408 0.246582 -0.212402
v -0.070557 0.000000 -0.202393
v 0.029053 0.517090 -0.024414
v 0.105957 0.246582 -0.212402
v 0.209961 0.524658 0.016113
v -0.055908 0.500000 0.237061
v -0.120361 0.151123 0.282959
v -0.223877 0.500000 0.237061
v -0.359863 0.621338 0.374023
v -0.228271 0.916504 0.567139
v -0.259522 0.907715 0.347656
v 0.055420 0.275391 -0.322022
v 0.095703 0.000000 -0.264893
v 0.068848 0.000000 -0.202393
v 0.000000 0.361328 0.016113
v 0.000000 0.250000 0.398193
v -0.259522 0.354004 0.422119
v 0.359863 0.621338 0.374023
v 0.209961 0.524658 0.016113
v 0.133057 0.744141 0.016113
vt 0.0000 -0.0771
vt 0.0000 -0.0771
vt 0.0000 -0.0771
vt 0.0000 -0.0664
vt 0.0000 0.0000
vt 0.0000 0.0000
vt 0.0000 0.0000
vt 0.0000 0.0000
vt 0.0000 -0.0771
vt 0.0000 -0.0664
vt 0.0000 -0.0771
vt 0.0000 -0.0771
vt 0.0000 -0.0771
vt 0.0000 -0.0771
vt 0.0000 -0.0664
vt 0.0000 -0.0771
vt 0.0000 0.0000
vt 0.0000 0.0000
vt 0.0000 0.0000
vt 0.0000 0.0000
vt 0.0000 -0.0664
vt 0.0000 -0.0771
vt 0.0000 -0.0771
vt 0.0000 -0.0771
vt 0.1641 -0.2432
vt 0.1724 -0.2056
vt 0.0322 -0.2271
vt 0.0229 -0.2090
vt 0.0322 -0.2271
vt 0.0229 -0.2090
vt 0.1641 -0.2432
vt 0.1724 -0.2056
vt 0.5396 -0.1050
vt 0.4526 -0.1152
vt 0.5396 0.0000
vt 0.4526 0.0000
vt 0.5396 0.1055
vt 0.4526 0.1157
vt 0.4375 -0.4688
vt 0.4375 -0.5312
vt 0.5269 -0.4688
vt 0.5269 -0.5312
vt 0.4375 -0.4688
vt 0.4375 -0.5312
vt 0.0000 0.0000
vt 0.0000 0.0000
vt 0.0000 -0.0771
vt 0.0000 -0.0771
vt 0.0000 -0.0771
vt 0.0000 -0.0771
vt 0.0000 0.0000
vt 0.0000 0.0000
vt 0.0000 -0.0771
vt 0.0000 -0.0771
vt 0.0000 -0.0771
vt 0.0000 -0.0771
vt 0.1724 -0.2056
vt 0.0083 -0.2090
vt 0.0000 -0.1494
vt -0.0107 -0.1494
vt 0.1128 -0.0806
vt 0.0000 -0.1494
vt 0.1309 -0.1123
vt 0.1724 -0.2056
vt 0.2695 -0.0542
vt 0.2524 -0.2158
vt 0.3403 -0.1987
vt 0.3237 -0.3276
vt 0.5679 -0.2480
vt 0.5679 -0.3364
vt 0.5020 -0.1504
vt 0.5068 -0.1597
vt 0.5020 -0.1504
vt 0.5073 -0.2280
vt 0.5020 -0.2480
vt 0.5083 -0.3315
vt 0.5083 -0.3315
vt 0.5083 -0.2280
vt 0.5083 -0.3315
vt 0.5083 -0.3315
vt 0.5020 -0.2480
vt 0.5073 -0.2280
vt 0.5020 -0.1504
vt 0.5068 -0.1597
vt 0.0000 -0.0771
vt 0.0000 -0.0771
vt 0.0000 -0.0898
vt 0.0000 -0.0771
vt 0.0000 -0.1006
vt 0.0000 -0.1006
vt 0.0000 0.0000
vt 0.0000 0.0000
vt 0.0000 0.0000
vt 0.0000 -0.0898
vt 0.0000 -0.1006
vt 0.0000 -0.0771
vt 0.0000 -0.0771
vt 0.0000 -0.1006
vt 0.0000 -0.1006
vt 0.0000 0.0000
vt 0.0000 0.0000
vt 0.0000 0.0000
vt 0.0000 -0.0898
vt 0.0000 -0.1006
vt 0.0000 -0.1494
vt 0.1309 -0.1123
vt 0.1724 -0.2056
vt 0.2695 -0.0542
vt 0.2524 -0.2158
vt 0.3403 -0.1987
vt 0.3237 -0.3276
vt 0.5679 -0.2480
vt 0.5679 -0.3364
vt 0.1724 -0.2056
vt 0.2524 -0.2158
vt 0.1641 -0.2432
vt 0.3237 -0.3276
vt 0.2456 -0.3369
vt 0.3335 -0.3926
vt 0.3237 -0.3276
vt 0.5679 -0.3364
vt -0.0137 -0.5156
vt 0.0361 -0.4780
vt -0.0752 -0.4780
vt -0.0752 -0.4297
vt 0.0361 -0.4780
vt 0.0361 -0.4297
vt 0.0000 0.0000
vt 0.0000 -0.1006
vt 0.0000 -0.0898
vt 0.0000 -0.0771
vt 0.0000 -0.0771
vt 0.1724 -0.2056
vt 0.0000 -0.1494
vt 0.0083 -0.2090
vt -0.0107 -0.1494
vt 0.0083 -0.2090
vt 0.0029 -0.3750
vt 0.0029 -0.4111
vt 0.1138 -0.3750
vt 0.1138 -0.5000
vt -0.0420 -0.3750
vt 0.0361 -0.4780
vt 0.0361 -0.4297
vt -0.0752 -0.4297
vt -0.0137 -0.3496
vt 0.0361 -0.4297
vt 0.0000 -0.1494
vt 0.1128 -0.0806
vt 0.1309 -0.1123
vt 0.2695 0.0000
vt 0.2695 -0.0542
vt 0.5068 -0.1597
vt 0.5083 -0.2280
vt 0.5073 -0.2280
vt 0.5083 -0.3315
vt 0.5020 -0.2480
vt 0.5020 -0.3364
vt 0.5083 -0.3315
vt 0.5083 -0.3315
vt 0.2695 -0.0542
vt 0.3403 -0.1987
vt 0.3467 -0.0547
vt 0.5679 -0.1318
vt 0.1724 -0.2056
vt 0.1641 -0.2432
vt 0.2524 -0.2158
vt 0.3237 -0.3276
vt 0.2695 -0.0542
vt 0.2695 0.0000
vt 0.1309 -0.1123
vt 0.1128 -0.0806
vt 0.5679 -0.2480
vt 0.3403 -0.1987
vt 0.5679 -0.1318
vt 0.3467 -0.0547
vt 0.0029 -0.3750
vt 0.1138 -0.3750
vt 0.0029 -0.4111
vt 0.1138 -0.5000
vt 0.4526 0.1157
vt 0.4526 0.0000
vt 0.2427 0.0596
vt 0.2427 -0.0591
vt 0.0083 0.0000
vt 0.0083 -0.0938
vt 0.0596 0.0000
vt 0.0625 0.0000
vt 0.1641 -0.2432
vt 0.2456 -0.3369
vt 0.1641 -0.2432
vt 0.3237 -0.3276
vt 0.0083 0.0000
vt 0.0596 0.0000
vt 0.0083 -0.0938
vt 0.0625 0.0000
vt 0.5083 -0.3315
vt 0.5083 -0.2280
vt 0.5073 -0.2280
vt 0.5068 -0.1597
vt 0.0000 -0.1006
vt 0.0000 -0.0898
vt 0.0000 -0.0771
vt 0.0000 -0.0771
vt 0.0000 -0.0771
vt 0.0000 -0.0898
vt 0.0000 -0.1006
vt 0.0000 -0.0771
vt 0.1641 -0.2432
vt 0.0322 -0.2271
vt 0.0322 -0.2271
vt 0.1641 -0.2432
vt 0.0361 -0.4780
vt 0.0361 -0.4297
vt -0.0381 -0.4297
vt -0.0381 -0.4780
vt 0.0000 -0.5156
vt 0.0361 -0.4780
vt -0.0381 -0.4780
vt 0.0361 -0.4297
vt 0.0000 -0.3496
vt -0.0381 -0.4297
vt 0.0000 -0.0664
vt 0.0000 0.0000
vt 0.0000 0.0000
vt -0.0752 -0.4780
vt 0.0361 -0.4780
vt -0.0137 -0.5156
vt 0.0000 -0.0771
vt 0.0000 -0.0771
vt 0.0000 -0.0664
vt -0.0420 -0.3750
vt 0.1138 -0.5000
vt 0.1138 -0.3750
vt 0.2427 -0.0591
vt 0.4526 0.0000
vt 0.4526 -0.1152
vt 0.0000 -0.0938
vt 0.0000 -0.0312
vt 0.0000 -0.0312
vt 0.5020 -0.3364
vt 0.5020 -0.2480
vt 0.5083 -0.3315
vt 0.0000 0.0000
vt 0.0000 0.0000
vt 0.0000 -0.1006
vt 0.0000 -0.0938
vt 0.0000 -0.0312
vt 0.0000 -0.0312
vt 0.0000 -0.0938
vt 0.0000 -0.0312
vt 0.0000 -0.0312
vt 0.0000 -0.1006
vt 0.0000 -0.0771
vt 0.0000 -0.0771
vt 0.0000 -0.0938
vt 0.0000 -0.0312
vt 0.0000 -0.0312
vt 0.0000 -0.0664
vt 0.0000 0.0000
vt 0.0000 0.0000
vt 0.0000 -0.1006
vt 0.0000 -0.0898
vt 0.0000 0.0000
vt 0.0000 -0.0771
vt 0.0000 -0.0898
vt 0.0000 -0.0771
vt 0.0000 -0.0771
vt 0.0000 -0.0664
vt 0.0000 -0.0771
vt 0.3403 -0.1987
vt 0.2695 -0.0542
vt 0.3467 -0.0547
vt 0.0000 -0.1006
vt 0.0000 0.0000
vt 0.0000 0.0000
vt 0.5679 -0.3364
vt 0.3335 -0.3926
vt 0.3237 -0.3276
vt 0.3403 -0.1987
vt 0.5679 -0.2480
vt 0.5679 -0.1318
vn -0.9985 -0.0544 -0.0070
vn -0.9813 -0.1215 -0.1493
vn -0.9754 -0.1135 -0.1890
vn -0.9417 -0.1174 -0.3152
vn -0.9598 -0.0938 -0.2644
vn -0.8939 -0.4484 -0.0000
vn 0.7236 -0.6902 -0.0001
vn 0.8863 -0.2617 -0.3820
vn 0.8652 -0.1029 -0.4908
vn 0.9052 -0.2053 -0.3720
vn 0.9153 -0.2312 -0.3298
vn 0.9294 -0.3056 -0.2070
vn 0.9819 -0.1860 -0.0347
vn 0.9814 -0.1235 -0.1472
vn 0.9774 -0.0924 -0.1900
vn 0.9418 0.0258 -0.3351
vn 0.9598 -0.0938 -0.2644
vn 0.8188 -0.5741 0.0000
vn -0.8629 -0.5054 0.0000
vn -0.8863 -0.2617 -0.3820
vn -0.8492 -0.2495 -0.4654
vn -0.9002 -0.2366 -0.3657
vn -0.9157 -0.2287 -0.3304
vn -0.9704 -0.1611 -0.1801
vn 0.7766 -0.5637 0.2812
vn 0.8257 -0.4638 0.3212
vn 0.7744 -0.4861 0.4050
vn 0.5889 -0.3758 0.7155
vn -0.5770 -0.3762 0.7249
vn -0.7741 -0.4855 0.4062
vn -0.8267 -0.4626 0.3203
vn -0.7702 -0.5461 0.3295
vn 0.3150 0.9491 0.0068
vn 0.3285 0.9442 0.0241
vn 0.1271 0.9914 0.0302
vn -0.0982 0.9947 0.0307
vn -0.3286 0.9442 0.0240
vn -0.3398 0.9404 0.0107
vn -0.0000 0.9997 0.0227
vn 0.0000 0.9998 0.0215
vn -0.0000 -0.9997 -0.0235
vn -0.0000 -0.9997 -0.0230
vn 0.0000 0.0042 1.0000
vn 0.0000 -0.1045 0.9945
vn -0.0000 -0.1615 0.9869
vn -0.0000 -0.2008 0.9796
vn -0.0000 -0.1046 0.9945
vn 0.0000 -0.1614 0.9869
vn -0.9318 -0.0389 0.3609
vn -0.8796 -0.0557 0.4725
vn -0.8181 0.2548 0.5156
vn -0.0831 0.8672 0.4910
vn 0.0523 0.9515 0.3032
vn 0.6778 0.6902 0.2533
vn 0.8107 0.4152 0.4127
vn 0.8491 0.2763 0.4502
vn 0.8552 0.2002 0.4782
vn 0.9214 0.0387 0.3866
vn 0.9789 -0.1955 0.0594
vn 0.8194 -0.5344 -0.2073
vn 0.7470 -0.5754 -0.3330
vn 0.5688 -0.7311 -0.3767
vn 0.0000 0.9980 -0.0629
vn -0.2157 0.9586 -0.1860
vn -0.5276 0.8415 -0.1166
vn -0.8787 0.4657 -0.1052
vn -0.9978 0.0401 0.0526
vn -0.9321 -0.2402 -0.2711
vn -0.2568 -0.4514 -0.8546
vn -0.0000 -0.2890 -0.9573
vn 0.2568 -0.4514 -0.8546
vn 0.9321 -0.2402 -0.2712
vn 0.9978 0.0401 0.0526
vn 0.8787 0.4657 -0.1052
vn 0.7623 0.6336 -0.1318
vn 0.4374 0.8449 -0.3079
vn 0.1514 -0.5973 0.7876
vn -0.4983 -0.6425 0.5821
vn -0.5792 -0.6136 0.5367
vn -0.9344 -0.3550 -0.0301
vn -0.4040 -0.1985 -0.8929
vn 0.3253 -0.1027 -0.9400
vn 0.4206 -0.3190 -0.8493
vn 0.8827 -0.3461 0.3179
vn -0.7618 -0.0520 0.6458
vn -0.7621 0.0428 0.6461
vn -0.9412 0.0341 0.3360
vn -0.4025 0.6069 -0.6853
vn -0.2902 0.5253 -0.7999
vn -0.1993 0.2797 -0.9392
vn 0.3224 -0.1271 -0.9380
vn 0.4132 -0.3458 -0.8424
vn 0.8647 -0.4069 0.2945
vn -0.7075 0.0471 0.7051
vn -0.7019 0.1340 0.6996
vn -0.8821 0.1509 0.4463
vn -0.8904 0.4176 0.1813
vn -0.8599 0.3115 0.4045
vn -0.8491 0.2763 0.4502
vn -0.8552 0.2002 0.4782
vn -0.9214 0.0387 0.3866
vn -0.9789 -0.1955 0.0594
vn -0.8194 -0.5344 -0.2073
vn -0.7470 -0.5754 -0.3330
vn -0.5688 -0.7311 -0.3767
vn -0.7062 -0.4347 0.5589
vn -0.6965 -0.4795 0.5338
vn -0.5566 -0.6268 0.5452
vn -0.4841 -0.7139 0.5059
vn -0.1855 -0.8598 0.4758
vn 0.2080 -0.9753 0.0746
vn 0.3750 -0.9260 -0.0425
vn 0.3798 -0.8881 -0.2588
vn -0.8258 0.4785 -0.2984
vn -0.8580 0.4899 -0.1546
vn -0.4966 0.8492 -0.1793
vn 0.4697 0.8824 -0.0279
vn 0.8618 0.5067 -0.0242
vn 0.8501 0.5241 -0.0508
vn 0.8977 0.0763 0.4339
vn 0.9133 -0.1107 0.3920
vn 0.9155 -0.3130 0.2528
vn 0.8830 -0.4335 0.1800
vn 0.8828 -0.4475 0.1428
vn 0.9318 -0.0389 0.3609
vn 0.8796 -0.0557 0.4725
vn 0.7350 -0.1375 0.6640
vn 0.1275 -0.2607 0.9569
vn -0.0000 -0.3201 0.9474
vn -0.4934 -0.2300 -0.8389
vn -0.7128 0.1267 -0.6898
vn -0.0212 0.8178 -0.5751
vn 0.1038 0.9157 -0.3882
vn 0.6839 0.7245 0.0856
vn -0.8501 0.5241 -0.0508
vn -0.8523 0.5228 -0.0167
vn -0.3354 0.9419 -0.0167
vn -0.0000 1.0000 0.0046
vn 0.8531 0.5218 0.0024
vn -0.1428 0.9439 0.2978
vn -0.1329 0.8782 0.4594
vn -0.2310 0.8303 0.5072
vn -0.2472 0.8005 0.5460
vn -0.2864 0.7970 0.5317
vn -0.3084 0.6926 -0.6521
vn -0.4169 0.4540 -0.7874
vn -0.4802 0.2228 -0.8484
vn 0.5765 -0.7411 0.3441
vn 0.3052 -0.9268 0.2188
vn 0.3051 -0.9268 0.2188
vn -0.0000 -0.9977 0.0684
vn 0.9335 0.3381 0.1194
vn 0.9202 0.2992 -0.2526
vn 0.9202 0.2991 -0.2526
vn 0.8537 0.2574 -0.4527
vn 0.7062 -0.4347 0.5589
vn 0.6965 -0.4796 0.5338
vn 0.6965 -0.4795 0.5338
vn 0.6939 -0.4900 0.5277
vn 0.2864 0.7970 0.5317
vn 0.2472 0.8005 0.5460
vn 0.1214 0.8022 0.5845
vn -0.8493 0.2976 -0.4361
vn -0.8519 0.2753 -0.4454
vn -0.8537 0.2574 -0.4527
vn 0.4934 -0.2300 -0.8389
vn 0.7128 0.1266 -0.6898
vn 0.7128 0.1267 -0.6898
vn 0.7546 0.2386 -0.6113
vn -0.2880 0.8106 -0.5098
vn -0.1419 0.8107 -0.5680
vn -0.1420 0.8107 -0.5680
vn 0.0000 0.7922 -0.6103
vn 0.3041 -0.2571 0.9173
vn 0.3043 -0.2554 0.9177
vn 0.3043 -0.2556 0.9176
vn 0.3049 -0.2503 0.9189
vn -0.0000 -0.6822 0.7312
vn 0.2425 -0.7368 0.6311
vn 0.2426 -0.7368 0.6311
vn 0.4008 -0.7437 0.5350
vn -0.3041 -0.2571 0.9173
vn -0.3043 -0.2557 0.9176
vn -0.3043 -0.2554 0.9177
vn -0.3049 -0.2503 0.9189
vn 0.4802 0.2228 -0.8484
vn 0.4169 0.4540 -0.7874
vn 0.3084 0.6926 -0.6521
vn -0.7706 -0.5499 0.3223
vn -0.9105 -0.3568 0.2091
vn 0.7163 -0.5917 0.3697
vn 0.8734 -0.4130 0.2581
vn 0.7163 -0.5918 0.3697
vn -0.0000 -0.9640 0.2661
vn -0.0000 -0.9904 0.1380
vn -0.0000 -0.9840 0.1784
vn -0.0000 -0.9959 0.0907
vn -0.0000 -0.8754 -0.4834
vn -0.0000 -0.8592 0.5116
vn 0.0000 -0.2995 -0.9541
vn 0.8258 0.4785 -0.2984
vn -0.0000 -0.1304 -0.9915
vn -0.6839 0.7245 0.0856
vn 0.2880 0.8106 -0.5098
vn 0.8212 -0.0396 -0.5693
vn -0.5765 -0.7411 0.3441
vn -0.8769 -0.2753 -0.3939
vn -0.8235 -0.0363 -0.5661
vn -0.8212 0.0396 0.5693
vn 0.4025 0.6069 -0.6853
vn 0.8235 0.0363 0.5661
vn 0.8310 0.1826 0.5255
vn -0.1523 -0.5929 0.7908
vn -0.9335 0.3381 0.1194
vn -0.8980 -0.2114 -0.3859
vn -0.3798 -0.8881 -0.2588
vn 0.8493 0.2976 -0.4361
usemtl material_0
s 1
f 1/1/1 2/2/2 3/3/3
f 2/2/2 4/4/4 3/3/3
f 3/3/3 4/4/4 5/5/5
f 4/4/4 6/6/6 5/5/5
f 5/5/5 6/6/6 7/7/7
f 6/6/6 8/8/8 7/7/7
f 7/7/7 8/8/8 9/9/9
f 8/8/8 10/10/10 9/9/9
f 9/9/9 10/10/10 11/11/11
f 10/10/10 12/12/12 11/11/11
f 13/13/13 14/14/14 15/15/15
f 14/14/14 16/16/16 15/15/15
f 15/15/15 16/16/16 17/17/17
f 16/16/16 18/18/18 17/17/17
f 17/17/17 18/18/18 19/19/19
f 18/18/18 20/20/20 19/19/19
f 19/19/19 20/20/20 21/21/21
f 20/20/20 22/22/22 21/21/21
f 21/21/21 22/22/22 23/23/23
f 22/22/22 24/24/24 23/23/23
f 25/25/25 26/26/26 27/27/27
f 26/26/26 28/28/28 27/27/27
f 27/27/27 28/28/28 29/29/29
f 28/28/28 30/30/30 29/29/29
f 29/29/29 30/30/30 31/31/31
f 30/30/30 32/32/32 31/31/31
f 33/33/33 34/34/34 35/35/35
f 34/34/34 36/36/36 35/35/35
f 35/35/35 36/36/36 37/37/37
f 36/36/36 38/38/38 37/37/37
f 39/39/39 40/40/39 41/41/40
f 40/40/39 42/42/41 41/41/40
f 41/41/40 42/42/41 43/43/42
f 42/42/41 44/44/42 43/43/42
f 45/45/43 46/46/43 47/47/44
f 46/46/43 48/48/45 47/47/44
f 47/47/44 48/48/45 49/49/46
f 48/48/45 50/50/46 49/49/46
f 51/51/43 52/52/43 53/53/47
f 52/52/43 54/54/48 53/53/47
f 53/53/47 54/54/48 55/55/46
f 54/54/48 56/56/46 55/55/46
f 57/57/49 58/58/50 59/59/51
f 58/58/50 60/60/52 59/59/51
f 59/59/51 60/60/52 61/61/53
f 60/60/52 62/62/54 61/61/53
f 61/61/53 62/62/54 63/63/55
f 62/62/54 64/64/56 63/63/55
f 63/63/55 64/64/56 65/65/57
f 64/64/56 66/66/58 65/65/57
f 65/65/57 66/66/58 67/67/59
f 66/66/58 68/68/60 67/67/59
f 67/67/59 68/68/60 69/69/61
f 68/68/60 70/70/62 69/69/61
f 71/71/63 72/72/64 73/73/65
f 72/72/64 74/74/66 73/73/65
f 73/73/65 74/74/66 75/75/67
f 74/74/66 76/76/68 75/75/67
f 75/75/67 76/76/68 77/77/69
f 76/76/68 78/78/70 77/77/69
f 77/77/69 78/78/70 79/79/71
f 78/78/70 80/80/72 79/79/71
f 79/79/71 80/80/72 81/81/73
f 80/80/72 82/82/74 81/81/73
f 81/81/73 82/82/74 83/83/75
f 82/82/74 84/84/76 83/83/75
f 85/85/77 86/86/78 87/87/79
f 86/86/78 88/88/80 87/87/79
f 87/87/79 88/88/80 89/89/81
f 88/88/80 90/90/82 89/89/81
f 89/89/81 90/90/82 91/91/83
f 90/90/82 92/92/84 91/91/83
f 91/91/83 92/92/84 93/93/85
f 92/92/84 94/94/86 93/93/85
f 93/93/85 94/94/86 95/95/87
f 96/96/88 97/97/89 98/98/90
f 97/97/89 99/99/91 98/98/90
f 98/98/90 99/99/91 100/100/92
f 99/99/91 101/101/93 100/100/92
f 100/100/92 101/101/93 102/102/94
f 101/101/93 103/103/95 102/102/94
f 102/102/94 103/103/95 104/104/96
f 105/105/97 106/106/98 107/107/99
f 106/106/98 108/108/100 107/107/99
f 107/107/99 108/108/100 109/109/101
f 108/108/100 110/110/102 109/109/101
f 109/109/101 110/110/102 111/111/103
f 110/110/102 112/112/104 111/111/103
f 111/111/103 112/112/104 113/113/105
f 114/114/106 115/115/107 116/116/108
f 115/115/107 117/117/109 116/116/108
f 116/116/108 117/117/109 118/118/110
f 117/117/109 119/119/111 118/118/110
f 118/118/110 119/119/111 120/120/112
f 119/119/111 121/121/113 120/120/112
f 122/122/114 123/123/115 124/124/116
f 123/123/115 125/125/117 124/124/116
f 124/124/116 125/125/117 126/126/118
f 125/125/117 127/127/119 126/126/118
f 128/128/120 129/129/121 130/130/122
f 129/129/121 131/131/123 130/130/122
f 130/130/122 131/131/123 132/132/124
f 133/133/125 134/134/126 135/135/127
f 134/134/126 136/136/128 135/135/127
f 135/135/127 136/136/128 137/137/129
f 138/138/130 139/139/131 140/140/132
f 139/139/131 141/141/133 140/140/132
f 140/140/132 141/141/133 142/142/134
f 143/143/135 144/144/136 145/145/137
f 144/144/136 146/146/138 145/145/137
f 145/145/137 146/146/138 147/147/139
f 148/148/140 149/149/141 150/150/142
f 149/149/141 151/151/143 150/150/142
f 150/150/142 151/151/143 152/152/144
f 153/153/145 154/154/146 155/155/146
f 154/154/146 156/156/147 155/155/146
f 157/157/148 158/158/149 159/159/150
f 158/158/149 160/160/151 159/159/150
f 161/161/152 162/162/153 163/163/154
f 162/162/153 164/164/155 163/163/154
f 165/165/156 166/166/157 167/167/158
f 166/166/157 168/168/159 167/167/158
f 169/169/160 170/170/161 171/171/161
f 170/170/161 172/172/162 171/171/161
f 173/173/163 174/174/164 175/175/164
f 174/174/164 176/176/165 175/175/164
f 177/177/166 178/178/167 179/179/168
f 178/178/167 180/180/169 179/179/168
f 181/181/170 182/182/171 183/183/172
f 182/182/171 184/184/173 183/183/172
f 185/185/174 186/186/175 187/187/176
f 186/186/175 188/188/177 187/187/176
f 189/189/178 190/190/179 191/191/180
f 190/190/179 192/192/181 191/191/180
f 193/193/182 194/194/183 195/195/184
f 194/194/183 196/196/185 195/195/184
f 197/197/186 198/198/187 199/199/187
f 198/198/187 200/200/188 199/199/187
f 201/201/189 202/202/190 203/203/189
f 201/201/189 203/203/189 204/204/190
f 205/205/191 206/206/192 207/207/193
f 205/205/191 207/207/193 208/208/192
f 209/209/194 210/210/195 211/211/194
f 209/209/194 211/211/194 212/212/195
f 213/213/196 214/214/197 215/215/196
f 213/213/196 215/215/196 216/216/197
f 217/217/198 218/218/198 219/219/198
f 220/220/199 221/221/199 222/222/199
f 223/223/200 224/224/200 225/225/200
f 226/226/201 227/227/201 228/228/201
f 229/229/202 230/230/202 231/231/202
f 232/232/203 233/233/203 234/234/203
f 235/235/204 236/236/204 237/237/204
f 238/238/205 239/239/205 240/240/205
f 241/241/206 242/242/206 243/243/206
f 244/244/207 245/245/207 246/246/207
f 247/247/208 248/248/208 249/249/208
f 250/250/209 251/251/209 252/252/209
f 253/253/210 254/254/210 255/255/210
f 256/256/211 257/257/211 258/258/211
f 259/259/200 260/260/200 261/261/200
f 262/262/212 263/263/212 264/264/212
f 265/265/213 266/266/213 267/267/213
f 268/268/202 269/269/202 270/270/202
f 271/271/214 272/272/214 273/273/214
f 274/274/215 275/275/215 276/276/215
f 277/277/216 278/278/216 279/279/216
f 280/280/217 281/281/217 282/282/217
